<svg width="20" height="21" viewBox="0 0 20 21" fill="none" xmlns="http://www.w3.org/2000/svg">
  <path
    d="M1.02388 14.9309L4.38721 12.359C4.1949 11.7749 4.09091 11.15 4.09091 10.5C4.09091 9.85001 4.1949 9.22513 4.38721 8.64102L1.02388 6.06906C0.367906 7.40272 0 8.90631 0 10.5C0 12.0937 0.367906 13.5973 1.02388 14.9309Z"
    fill="#FBBC05"/>
  <path
    d="M4.38725 8.64102C5.16325 6.28407 7.3773 4.59091 10 4.59091C11.4091 4.59091 12.6819 5.09091 13.6819 5.90909L16.591 3C14.8182 1.45455 12.5455 0.5 10 0.5C6.04828 0.5 2.6505 2.7621 1.02393 6.06906L4.38725 8.64102Z"
    fill="#EA4335"/>
  <path
    d="M9.99993 20.5C6.04707 20.5 2.6485 18.2367 1.02246 14.9282L4.38442 12.3507C5.15795 14.712 7.37411 16.4091 9.99993 16.4091C11.2848 16.4091 12.4233 16.1065 13.3249 15.5375L16.5179 18.0095C14.77 19.6347 12.439 20.5 9.99993 20.5Z"
    fill="#34A853"/>
  <path
    d="M10 8.68182H19.3182C19.4545 9.27273 19.5455 9.90909 19.5455 10.5C19.5455 13.7593 18.3531 16.3032 16.5179 18.0095L13.325 15.5375C14.369 14.8786 15.0953 13.8626 15.3636 12.5455H10V8.68182Z"
    fill="#4285F4"/>
</svg>
