<svg width="20" height="20" viewBox="0 0 20 20" fill="none" xmlns="http://www.w3.org/2000/svg">
  <path
    d="M17.5 10C17.5001 11.766 16.877 13.4753 15.7405 14.827C14.6041 16.1787 13.0271 17.086 11.2873 17.3891C9.54756 17.6922 7.75665 17.3717 6.23001 16.484C4.70337 15.5963 3.53893 14.1984 2.94178 12.5364C2.34464 10.8745 2.35309 9.05516 2.96566 7.39884C3.57822 5.74253 4.7556 4.35549 6.29043 3.48202C7.82525 2.60856 9.61907 2.30471 11.3559 2.62398C13.0928 2.94325 14.6613 3.86516 15.7852 5.22734C15.841 5.29012 15.8835 5.3635 15.9103 5.4431C15.9371 5.5227 15.9476 5.60689 15.9411 5.69063C15.9347 5.77437 15.9114 5.85595 15.8727 5.93049C15.834 6.00504 15.7807 6.07102 15.7159 6.12449C15.6511 6.17796 15.5763 6.21783 15.4957 6.24172C15.4152 6.26561 15.3307 6.27302 15.2473 6.26351C15.1638 6.25401 15.0831 6.22778 15.01 6.1864C14.937 6.14501 14.873 6.08932 14.8219 6.02266C13.9026 4.90806 12.6256 4.14636 11.2081 3.86712C9.79061 3.58788 8.32013 3.80836 7.04684 4.49105C5.77356 5.17374 4.77611 6.27647 4.22419 7.61165C3.67226 8.94683 3.59995 10.432 4.01955 11.8145C4.43915 13.1969 5.32475 14.3914 6.52569 15.1945C7.72663 15.9977 9.16874 16.36 10.6067 16.2198C12.0446 16.0796 13.3896 15.4455 14.4127 14.4255C15.4359 13.4055 16.0741 12.0625 16.2188 10.625H10C9.83424 10.625 9.67527 10.5592 9.55806 10.4419C9.44085 10.3247 9.375 10.1658 9.375 10C9.375 9.83424 9.44085 9.67527 9.55806 9.55806C9.67527 9.44085 9.83424 9.375 10 9.375H16.875C17.0408 9.375 17.1997 9.44085 17.3169 9.55806C17.4342 9.67527 17.5 9.83424 17.5 10Z"
    fill="#262D3B"/>
</svg>
