<svg width="20" height="20" viewBox="0 0 20 20" fill="none" xmlns="http://www.w3.org/2000/svg">
  <path
    d="M10 17.5C10.4602 17.5 10.8333 17.1269 10.8333 16.6667C10.8333 16.2064 10.4602 15.8333 10 15.8333V16.6667V17.5ZM5.83333 3.33333C5.83333 2.8731 5.46024 2.5 5 2.5C4.53976 2.5 4.16667 2.8731 4.16667 3.33333H5H5.83333ZM1.91074 5.24408C1.58531 5.56951 1.58531 6.09715 1.91074 6.42259C2.23618 6.74803 2.76382 6.74803 3.08926 6.42259L2.5 5.83333L1.91074 5.24408ZM5 3.33333L5.58926 2.74408C5.26382 2.41864 4.73618 2.41864 4.41074 2.74408L5 3.33333ZM6.91074 6.42259C7.23618 6.74803 7.76382 6.74803 8.08926 6.42259C8.41469 6.09715 8.41469 5.56951 8.08926 5.24408L7.5 5.83333L6.91074 6.42259ZM10 16.6667V15.8333H7.5V16.6667V17.5H10V16.6667ZM7.5 16.6667L7.5 15.8333C6.57953 15.8333 5.83333 15.0871 5.83333 14.1667H5H4.16667C4.16667 16.0076 5.65905 17.5 7.5 17.5L7.5 16.6667ZM5 14.1667H5.83333L5.83333 3.33333H5H4.16667L4.16667 14.1667H5ZM2.5 5.83333L3.08926 6.42259L5.58926 3.92259L5 3.33333L4.41074 2.74408L1.91074 5.24408L2.5 5.83333ZM5 3.33333L4.41074 3.92259L6.91074 6.42259L7.5 5.83333L8.08926 5.24408L5.58926 2.74408L5 3.33333Z"
    fill="#434956"/>
  <path
    d="M10 2.50002C9.53976 2.50002 9.16667 2.87312 9.16667 3.33335C9.16667 3.79359 9.53976 4.16669 10 4.16669V3.33335V2.50002ZM14.1667 16.6667C14.1667 17.1269 14.5398 17.5 15 17.5C15.4602 17.5 15.8333 17.1269 15.8333 16.6667H15H14.1667ZM18.0893 14.7559C18.4147 14.4305 18.4147 13.9028 18.0893 13.5774C17.7638 13.252 17.2362 13.252 16.9107 13.5774L17.5 14.1667L18.0893 14.7559ZM15 16.6667L14.4107 17.2559C14.7362 17.5814 15.2638 17.5814 15.5893 17.2559L15 16.6667ZM13.0893 13.5774C12.7638 13.252 12.2362 13.252 11.9107 13.5774C11.5853 13.9028 11.5853 14.4305 11.9107 14.7559L12.5 14.1667L13.0893 13.5774ZM10 3.33335V4.16669H12.5V3.33335V2.50002H10V3.33335ZM12.5 3.33335V4.16669C13.4205 4.16669 14.1667 4.91288 14.1667 5.83335H15H15.8333C15.8333 3.9924 14.3409 2.50002 12.5 2.50002V3.33335ZM15 5.83335H14.1667V16.6667H15H15.8333V5.83335H15ZM17.5 14.1667L16.9107 13.5774L14.4107 16.0774L15 16.6667L15.5893 17.2559L18.0893 14.7559L17.5 14.1667ZM15 16.6667L15.5893 16.0774L13.0893 13.5774L12.5 14.1667L11.9107 14.7559L14.4107 17.2559L15 16.6667Z"
    fill="#434956"/>
</svg>
