<svg width="30" height="23" viewBox="0 0 30 23" fill="none" xmlns="http://www.w3.org/2000/svg">
  <path
    d="M29.9999 11.5C30.0062 13.8815 29.2336 16.1997 27.7999 18.1013C27.7209 18.2063 27.6221 18.2948 27.5089 18.3616C27.3958 18.4285 27.2705 18.4724 27.1404 18.4908C27.0103 18.5093 26.8778 18.5019 26.7505 18.4692C26.6233 18.4365 26.5037 18.379 26.3986 18.3C26.2936 18.221 26.2051 18.1222 26.1383 18.009C26.0714 17.8959 26.0275 17.7707 26.0091 17.6405C25.9906 17.5104 25.9979 17.3779 26.0307 17.2507C26.0634 17.1234 26.1209 17.0038 26.1999 16.8988C27.3734 15.3441 28.0056 13.4479 27.9999 11.5C27.9999 9.11306 27.0517 6.82387 25.3638 5.13604C23.676 3.44822 21.3868 2.50001 18.9999 2.50001C16.6129 2.50001 14.3238 3.44822 12.6359 5.13604C10.9481 6.82387 9.99988 9.11306 9.99988 11.5C9.99988 11.7652 9.89453 12.0196 9.70699 12.2071C9.51945 12.3946 9.2651 12.5 8.99988 12.5C8.73467 12.5 8.48031 12.3946 8.29278 12.2071C8.10524 12.0196 7.99988 11.7652 7.99988 11.5C7.9994 10.4909 8.13778 9.48643 8.41113 8.51501C8.27489 8.50001 8.13738 8.50001 7.99988 8.50001C6.40859 8.50001 4.88246 9.13215 3.75724 10.2574C2.63203 11.3826 1.99988 12.9087 1.99988 14.5C1.99988 16.0913 2.63203 17.6174 3.75724 18.7426C4.88246 19.8679 6.40859 20.5 7.99988 20.5H10.9999C11.2651 20.5 11.5195 20.6054 11.707 20.7929C11.8945 20.9804 11.9999 21.2348 11.9999 21.5C11.9999 21.7652 11.8945 22.0196 11.707 22.2071C11.5195 22.3946 11.2651 22.5 10.9999 22.5H7.99988C6.9001 22.5003 5.81208 22.2737 4.80377 21.8346C3.79546 21.3955 2.88853 20.7532 2.1396 19.9478C1.39068 19.1424 0.815854 18.1913 0.451032 17.1538C0.0862096 16.1163 -0.0607747 15.0147 0.0192589 13.9178C0.0992925 12.821 0.404625 11.7524 0.916186 10.7788C1.42775 9.80525 2.13455 8.94763 2.99245 8.25949C3.85035 7.57136 4.84092 7.06751 5.90229 6.7794C6.96366 6.49129 8.07304 6.42511 9.16113 6.58501C10.2691 4.36895 12.0928 2.59185 14.3368 1.54154C16.5808 0.491241 19.1136 0.229251 21.525 0.798012C23.9365 1.36677 26.0853 2.73297 27.6234 4.67532C29.1616 6.61766 29.9989 9.02239 29.9999 11.5ZM18.7074 10.7925C18.6145 10.6995 18.5042 10.6258 18.3828 10.5754C18.2614 10.5251 18.1313 10.4992 17.9999 10.4992C17.8685 10.4992 17.7383 10.5251 17.6169 10.5754C17.4955 10.6258 17.3853 10.6995 17.2924 10.7925L13.2924 14.7925C13.1995 14.8854 13.1258 14.9957 13.0755 15.1171C13.0252 15.2385 12.9993 15.3686 12.9993 15.5C12.9993 15.6314 13.0252 15.7615 13.0755 15.8829C13.1258 16.0043 13.1995 16.1146 13.2924 16.2075C13.48 16.3951 13.7345 16.5006 13.9999 16.5006C14.1313 16.5006 14.2614 16.4747 14.3828 16.4244C14.5042 16.3741 14.6145 16.3004 14.7074 16.2075L16.9999 13.9138V21.5C16.9999 21.7652 17.1052 22.0196 17.2928 22.2071C17.4803 22.3946 17.7347 22.5 17.9999 22.5C18.2651 22.5 18.5195 22.3946 18.707 22.2071C18.8945 22.0196 18.9999 21.7652 18.9999 21.5V13.9138L21.2924 16.2075C21.3853 16.3004 21.4956 16.3741 21.617 16.4244C21.7384 16.4747 21.8685 16.5006 21.9999 16.5006C22.1313 16.5006 22.2614 16.4747 22.3828 16.4244C22.5042 16.3741 22.6145 16.3004 22.7074 16.2075C22.8003 16.1146 22.874 16.0043 22.9243 15.8829C22.9746 15.7615 23.0004 15.6314 23.0004 15.5C23.0004 15.3686 22.9746 15.2385 22.9243 15.1171C22.874 14.9957 22.8003 14.8854 22.7074 14.7925L18.7074 10.7925Z"
    fill="#434956"/>
</svg>
