<svg width="28" height="28" viewBox="0 0 28 28" fill="none" xmlns="http://www.w3.org/2000/svg">
  <path
    d="M16.6249 24.5C16.6249 24.7321 16.5327 24.9546 16.3686 25.1187C16.2045 25.2828 15.982 25.375 15.7499 25.375H12.2499C12.0178 25.375 11.7953 25.2828 11.6312 25.1187C11.4671 24.9546 11.3749 24.7321 11.3749 24.5C11.3749 24.268 11.4671 24.0454 11.6312 23.8813C11.7953 23.7172 12.0178 23.625 12.2499 23.625H15.7499C15.982 23.625 16.2045 23.7172 16.3686 23.8813C16.5327 24.0454 16.6249 24.268 16.6249 24.5ZM13.9999 12.25C14.2595 12.25 14.5132 12.173 14.7291 12.0288C14.9449 11.8846 15.1131 11.6796 15.2125 11.4398C15.3118 11.2 15.3378 10.9361 15.2872 10.6815C15.2365 10.4269 15.1115 10.193 14.928 10.0094C14.7444 9.82589 14.5105 9.70088 14.2559 9.65024C14.0013 9.5996 13.7374 9.62559 13.4976 9.72493C13.2578 9.82427 13.0528 9.9925 12.9086 10.2083C12.7644 10.4242 12.6874 10.6779 12.6874 10.9375C12.6874 11.2856 12.8257 11.6195 13.0718 11.8656C13.318 12.1117 13.6518 12.25 13.9999 12.25ZM24.4583 17.0439L23.1065 23.1285C23.0423 23.4174 22.9059 23.6853 22.7101 23.9073C22.5142 24.1292 22.2653 24.2978 21.9866 24.3973C21.7078 24.4968 21.4084 24.5241 21.1163 24.4764C20.8242 24.4288 20.549 24.3078 20.3163 24.1249L17.3369 21.875H10.665L7.68348 24.1249C7.45083 24.3078 7.17557 24.4288 6.88346 24.4764C6.59135 24.5241 6.29193 24.4968 6.0132 24.3973C5.73447 24.2978 5.48553 24.1292 5.28968 23.9073C5.09383 23.6853 4.95746 23.4174 4.89333 23.1285L3.54145 17.0439C3.48411 16.7828 3.487 16.5121 3.54992 16.2522C3.61284 15.9924 3.73413 15.7503 3.90458 15.5444L7.02833 11.7972C7.13317 10.4201 7.44932 9.06735 7.96567 7.78643C9.37661 4.24924 11.9032 2.03002 12.928 1.24033C13.2348 1.00264 13.6118 0.873657 13.9999 0.873657C14.388 0.873657 14.765 1.00264 15.0718 1.24033C16.0933 2.03002 18.6232 4.24924 20.0341 7.78643C20.5505 9.06735 20.8666 10.4201 20.9715 11.7972L24.0952 15.5444C24.2656 15.7503 24.3869 15.9924 24.4499 16.2522C24.5128 16.5121 24.5157 16.7828 24.4583 17.0439ZM10.875 20.125H17.1247C19.4347 16.0191 19.8668 12.0881 18.4088 8.43502C17.1225 5.21065 14.7097 3.1719 13.9999 2.62502C13.2879 3.1719 10.875 5.21065 9.58879 8.43502C8.13301 12.0881 8.56505 16.0191 10.875 20.125ZM9.23442 20.7649C8.05682 18.6248 7.34223 16.5215 7.09067 14.455L5.24989 16.6644L6.60176 22.75L6.62145 22.7358L9.23442 20.7649ZM22.7499 16.6644L20.9091 14.455C20.6597 16.5171 19.9466 18.6204 18.7697 20.7649L21.3783 22.7336L21.398 22.7478L22.7499 16.6644Z"
    fill="#62C069"/>
</svg>
