<svg width="28" height="32" viewBox="0 0 28 32" fill="none" xmlns="http://www.w3.org/2000/svg">
  <path
    d="M14.1828 16.7309C12.4983 16.7309 11.1328 15.3708 11.1328 13.693V8.79615C11.1328 7.11837 12.4983 5.75824 14.1828 5.75824C15.8672 5.75824 17.2328 7.11837 17.2328 8.79615V13.693C17.2328 15.3708 15.8672 16.7309 14.1828 16.7309Z"
    fill="#262D3B"/>
  <path d="M14.739 2.36487H13.627V8.32065H14.739V2.36487Z" fill="#262D3B"/>
  <path
    d="M15.7313 1.53838C15.7313 2.39018 15.0379 3.08051 14.183 3.08051C13.8102 3.08051 13.4682 2.9492 13.2009 2.73079C12.8553 2.44808 12.6348 2.01882 12.6348 1.53841C12.6348 0.686609 13.3278 -0.00372314 14.183 -0.00372314C14.6657 -0.00372314 15.0966 0.216235 15.3808 0.561108C15.5998 0.827027 15.7313 1.16731 15.7313 1.53838Z"
    fill="#27782D"/>
  <path
    d="M15.7311 1.53835C15.7311 2.39015 15.0377 3.08048 14.1828 3.08048C13.81 3.08048 13.468 2.94917 13.2007 2.73076C12.9814 2.46451 12.8496 2.1239 12.8496 1.75283C12.8496 0.901027 13.5427 0.210693 14.3979 0.210693C14.771 0.210693 15.1133 0.342294 15.3806 0.56104C15.5996 0.826997 15.7311 1.16728 15.7311 1.53835Z"
    fill="#62C069"/>
  <path
    d="M2.6977 14.4675C2.04697 16.0572 1.68815 17.7963 1.68815 19.6191V23.8947C0.991574 23.6428 0.494141 22.9774 0.494141 22.1968V16.2312C0.494141 15.3862 1.07685 14.6767 1.86361 14.4799C2.00525 14.4439 2.15405 14.4252 2.30694 14.4252C2.44109 14.4252 2.57181 14.4398 2.6977 14.4675Z"
    fill="#262D3B"/>
  <path
    d="M27.5064 16.2312V22.1967C27.5064 23.1941 26.6945 24.0027 25.6932 24.0027C25.659 24.0027 25.6248 24.0016 25.5914 24.0001C25.6902 23.7097 25.7796 23.4145 25.8589 23.1154C26.1549 21.9998 26.3128 20.8278 26.3128 19.6191C26.3128 17.7962 25.954 16.0572 25.3032 14.4675C25.4287 14.4398 25.5595 14.4252 25.6932 14.4252C25.8461 14.4252 25.9949 14.4439 26.1369 14.4798C26.9237 14.6771 27.5064 15.3862 27.5064 16.2312Z"
    fill="#262D3B"/>
  <path
    d="M26.5205 19.5819C26.5205 20.895 26.316 22.1598 25.9364 23.3476C25.9136 23.4202 25.8893 23.4927 25.865 23.5653C25.6766 24.12 25.4493 24.6571 25.1874 25.173C23.1341 29.2186 18.923 31.9922 14.0609 31.9922H1.60205V19.5819C1.60205 17.9251 1.92871 16.3445 2.5202 14.8987C2.68352 14.5008 2.86596 14.1125 3.06901 13.7358C4.65368 10.7864 7.40001 8.54851 10.6995 7.63032C10.9467 7.5607 11.1969 7.49916 11.4499 7.44567H11.4507C12.1555 7.29544 12.883 7.20532 13.6268 7.18041C13.771 7.17527 13.916 7.17236 14.0609 7.17236C14.289 7.17236 14.5141 7.17898 14.7385 7.1907C15.494 7.231 16.2312 7.33798 16.9455 7.50724C20.457 8.33601 23.3938 10.645 25.0535 13.7359C25.2566 14.1125 25.4397 14.5009 25.6031 14.8988C26.1946 16.3445 26.5205 17.9251 26.5205 19.5819Z"
    fill="#27782D"/>
  <path
    d="M25.7848 21.1823C25.7848 22.5709 25.5766 23.9119 25.1874 25.173C23.1341 29.2186 18.923 31.9922 14.0609 31.9922H1.60205V19.5819C1.60205 17.9251 1.92871 16.3445 2.5202 14.8987C2.68353 14.5008 2.86596 14.1125 3.06901 13.7358C4.65368 10.7864 7.40001 8.54851 10.6995 7.63032C11.0071 7.5988 11.3175 7.5783 11.6302 7.56731C11.7884 7.56143 11.9473 7.55927 12.1076 7.55927C12.3571 7.55927 12.605 7.56584 12.8514 7.57903C13.6805 7.62374 14.4898 7.74098 15.2733 7.92637C19.1283 8.83574 22.3521 11.3712 24.1751 14.7646C24.3973 15.1779 24.5981 15.6036 24.7776 16.0411C25.4265 17.6276 25.7848 19.3628 25.7848 21.1823Z"
    fill="#62C069"/>
  <path
    d="M23.9665 19.8215C23.9665 20.6268 23.8745 21.4101 23.7001 22.1612C23.578 22.6867 23.1712 23.097 22.6547 23.2179C22.3995 23.278 22.1332 23.3102 21.8602 23.3102H6.16144C5.75238 23.3102 5.36029 23.2391 4.99538 23.1087C4.43111 22.9072 4.05518 22.3628 4.05518 21.7545V19.8215C4.05518 18.4681 4.31562 17.1762 4.78864 15.9957C4.81439 15.9312 4.84087 15.8675 4.86809 15.8037C4.87104 15.7964 4.87399 15.789 4.87691 15.7817C5.09981 15.2607 5.60229 14.9156 6.16066 14.9178C6.1614 14.9178 6.1614 14.9178 6.1614 14.9178C8.7223 14.2715 11.3664 13.9476 14.0104 13.9476C16.6545 13.9476 19.2985 14.2715 21.8602 14.9178H21.8675C22.423 14.9178 22.9225 15.2629 23.1447 15.7817C23.1476 15.7891 23.1506 15.7964 23.1535 15.8037C23.1807 15.8674 23.2072 15.9312 23.233 15.9957C23.7061 17.1762 23.9665 18.4681 23.9665 19.8215Z"
    fill="#DFE0E2"/>
  <path
    d="M23.9665 19.8215C23.9665 20.6268 23.8745 21.4101 23.7001 22.1612C23.578 22.6867 23.1712 23.097 22.6547 23.2179C22.3995 23.278 22.1332 23.3102 21.8602 23.3102H6.16144C5.75238 23.3102 5.36029 23.2391 4.99538 23.1087C4.43111 22.9072 4.05518 22.3628 4.05518 21.7545V19.8215C4.05518 18.4681 4.31562 17.1762 4.78864 15.9957C4.81439 15.9312 4.84087 15.8675 4.86809 15.8037H4.89162C10.8426 14.5103 17.179 14.5103 23.13 15.8037H23.1535C23.1808 15.8674 23.2073 15.9312 23.233 15.9957C23.706 17.1762 23.9665 18.4681 23.9665 19.8215Z"
    fill="white"/>
  <path
    d="M17.335 19.0293C17.335 19.7835 17.9494 20.3955 18.7072 20.3955C19.465 20.3955 20.0788 19.7835 20.0788 19.0293C20.0788 18.2745 19.465 17.6625 18.7072 17.6625C17.9494 17.6625 17.335 18.2745 17.335 19.0293Z"
    fill="#00B8D9"/>
  <path
    d="M16.0645 19.0293C16.0645 20.4825 17.2477 21.6611 18.7073 21.6611C20.1669 21.6611 21.3502 20.4825 21.3502 19.0293C21.3502 17.5755 20.1669 16.3969 18.7073 16.3969C17.2477 16.3969 16.0645 17.5755 16.0645 19.0293ZM16.6593 19.0293C16.6593 17.9026 17.5762 16.9894 18.7073 16.9894C19.8385 16.9894 20.7553 17.9026 20.7553 19.0293C20.7553 20.1554 19.8385 21.0685 18.7073 21.0685C17.5762 21.0686 16.6593 20.1554 16.6593 19.0293Z"
    fill="#62C069"/>
  <path
    d="M17.335 19.0293C17.335 19.7835 17.9494 20.3955 18.7072 20.3955C19.465 20.3955 20.0788 19.7835 20.0788 19.0293C20.0788 18.2745 19.465 17.6625 18.7072 17.6625C17.9494 17.6625 17.335 18.2745 17.335 19.0293Z"
    fill="#262D3B"/>
  <path
    d="M17.335 19.0293C17.335 19.7835 17.9494 20.3955 18.7072 20.3955C19.465 20.3955 20.0788 19.7835 20.0788 19.0293C20.0788 18.2745 19.465 17.6625 18.7072 17.6625C17.9494 17.6625 17.335 18.2745 17.335 19.0293Z"
    fill="#434956"/>
  <path
    d="M19.1347 18.7713C19.4421 18.7713 19.6913 18.5231 19.6913 18.2169C19.6913 17.9107 19.4421 17.6625 19.1347 17.6625C18.8273 17.6625 18.5781 17.9107 18.5781 18.2169C18.5781 18.5231 18.8273 18.7713 19.1347 18.7713Z"
    fill="white"/>
  <path
    d="M7.94141 19.0293C7.94141 19.7835 8.55584 20.3955 9.31365 20.3955C10.0715 20.3955 10.6853 19.7835 10.6853 19.0293C10.6853 18.2745 10.0715 17.6625 9.31365 17.6625C8.55584 17.6625 7.94141 18.2745 7.94141 19.0293Z"
    fill="#00B8D9"/>
  <path
    d="M6.6709 19.0293C6.6709 20.4825 7.85421 21.6611 9.31376 21.6611C10.7733 21.6611 11.9566 20.4825 11.9566 19.0293C11.9566 17.5755 10.7733 16.3969 9.31376 16.3969C7.85418 16.3969 6.6709 17.5755 6.6709 19.0293ZM7.26579 19.0293C7.26579 17.9026 8.18257 16.9894 9.31376 16.9894C10.445 16.9894 11.3617 17.9026 11.3617 19.0293C11.3617 20.1554 10.445 21.0685 9.31376 21.0685C8.1826 21.0686 7.26579 20.1554 7.26579 19.0293Z"
    fill="#62C069"/>
  <path
    d="M7.94141 19.0293C7.94141 19.7835 8.55584 20.3955 9.31365 20.3955C10.0715 20.3955 10.6853 19.7835 10.6853 19.0293C10.6853 18.2745 10.0715 17.6625 9.31365 17.6625C8.55584 17.6625 7.94141 18.2745 7.94141 19.0293Z"
    fill="#262D3B"/>
  <path
    d="M7.94141 19.0293C7.94141 19.7835 8.55584 20.3955 9.31365 20.3955C10.0715 20.3955 10.6853 19.7835 10.6853 19.0293C10.6853 18.2745 10.0715 17.6625 9.31365 17.6625C8.55584 17.6625 7.94141 18.2745 7.94141 19.0293Z"
    fill="#434956"/>
  <path
    d="M9.74166 18.7713C10.0491 18.7713 10.2983 18.5231 10.2983 18.2169C10.2983 17.9107 10.0491 17.6625 9.74166 17.6625C9.43425 17.6625 9.18506 17.9107 9.18506 18.2169C9.18506 18.5231 9.43425 18.7713 9.74166 18.7713Z"
    fill="white"/>
  <path
    d="M10.8364 26.0723C10.8575 27.2573 12.2701 28.2136 14.0104 28.2136C15.7508 28.2136 17.1634 27.2573 17.1845 26.0723H10.8364Z"
    fill="white"/>
</svg>
