<svg width="12" height="12" viewBox="0 0 12 12" fill="none" xmlns="http://www.w3.org/2000/svg">
  <path
    d="M5.99998 7.16671L1.91665 11.25C1.76387 11.4028 1.56942 11.4792 1.33331 11.4792C1.0972 11.4792 0.902757 11.4028 0.749979 11.25C0.597202 11.0973 0.520813 10.9028 0.520813 10.6667C0.520813 10.4306 0.597202 10.2362 0.749979 10.0834L4.83331 6.00004L0.749979 1.91671C0.597202 1.76393 0.520813 1.56949 0.520813 1.33337C0.520813 1.09726 0.597202 0.902818 0.749979 0.75004C0.902757 0.597263 1.0972 0.520874 1.33331 0.520874C1.56942 0.520874 1.76387 0.597263 1.91665 0.75004L5.99998 4.83337L10.0833 0.75004C10.2361 0.597263 10.4305 0.520874 10.6666 0.520874C10.9028 0.520874 11.0972 0.597263 11.25 0.75004C11.4028 0.902818 11.4791 1.09726 11.4791 1.33337C11.4791 1.56949 11.4028 1.76393 11.25 1.91671L7.16665 6.00004L11.25 10.0834C11.4028 10.2362 11.4791 10.4306 11.4791 10.6667C11.4791 10.9028 11.4028 11.0973 11.25 11.25C11.0972 11.4028 10.9028 11.4792 10.6666 11.4792C10.4305 11.4792 10.2361 11.4028 10.0833 11.25L5.99998 7.16671Z"
    fill="#434956"/>
</svg>
