<svg width="20" height="20" viewBox="0 0 20 20" fill="none" xmlns="http://www.w3.org/2000/svg">
  <path
    d="M3.75195 2.99451C3.76829 2.99542 3.78408 3.00013 3.79883 3.0072C3.81373 3.01439 3.82789 3.02413 3.83887 3.0365L3.84277 3.04138L16.3418 16.7914L16.3457 16.7953C16.3569 16.8074 16.3654 16.8218 16.3711 16.8373C16.3768 16.8528 16.3796 16.8696 16.3789 16.8861C16.3782 16.9025 16.3742 16.9191 16.3672 16.934C16.3602 16.9488 16.35 16.962 16.3379 16.973C16.3257 16.9841 16.3114 16.9929 16.2959 16.9984C16.2804 17.0039 16.2635 17.0061 16.2471 17.0052C16.2308 17.0043 16.2149 17.0005 16.2002 16.9935C16.1853 16.9863 16.1721 16.9756 16.1611 16.9633L16.1572 16.9594L14.4385 15.0677L14.1953 14.8011L13.8662 14.9467C12.6496 15.4839 11.3329 15.7579 10.0029 15.7504H10C7.41016 15.7504 5.06062 14.7683 3.19238 12.9008C1.78135 11.4896 1.14959 10.0834 1.13574 10.0521V10.0511C1.12875 10.0353 1.125 10.0177 1.125 10.0004L1.13574 9.94958C1.17519 9.8604 2.34369 7.28746 5.05176 5.62537L5.56641 5.30994L5.16016 4.86267L3.65723 3.20935L3.65332 3.20447C3.64213 3.1924 3.63363 3.17791 3.62793 3.16248C3.6223 3.14713 3.61948 3.13095 3.62012 3.11462C3.62081 3.09815 3.62487 3.08172 3.63184 3.06677C3.63884 3.05179 3.64889 3.03786 3.66113 3.02673C3.67331 3.01573 3.68765 3.00685 3.70312 3.00134C3.71865 2.99585 3.73551 2.99362 3.75195 2.99451ZM5.40234 5.70935C3.12195 7.0262 1.89706 9.0428 1.51172 9.76501L1.38477 10.0023L1.51367 10.2396C1.95513 11.05 2.49814 11.8 3.12793 12.473L3.40332 12.7572C5.23336 14.5708 7.45904 15.4987 9.99707 15.4994V15.5004L9.99805 15.4994L10 15.5004V15.4994C11.149 15.5054 12.2895 15.2977 13.3623 14.8861L14.0449 14.6244L13.5527 14.0834L12.4023 12.8177L12.1182 12.5052L11.7627 12.7328C11.1166 13.1451 10.3457 13.3153 9.58594 13.2142C8.82614 13.1131 8.12615 12.747 7.61035 12.1801C7.09452 11.6128 6.79538 10.8808 6.7666 10.1146C6.73792 9.34861 6.98137 8.59675 7.45312 7.99255L7.71191 7.66052L7.42773 7.34802L6.02148 5.80505L5.75098 5.50818L5.40234 5.70935ZM9.99902 4.25037H10C12.5898 4.25037 14.9394 5.23176 16.8076 7.09998C17.8662 8.15859 18.4859 9.21489 18.7354 9.68982L18.8643 9.94958C18.8713 9.96544 18.8749 9.98304 18.875 10.0004C18.875 10.0148 18.8701 10.0288 18.8652 10.0424L18.8623 10.0511C18.8399 10.1012 18.0829 11.7778 16.3789 13.3041L16.373 13.309C16.3609 13.3202 16.3466 13.3297 16.3311 13.3353C16.3155 13.341 16.2987 13.3429 16.2822 13.3422C16.2657 13.3414 16.2493 13.3375 16.2344 13.3304C16.2196 13.3234 16.2063 13.3134 16.1953 13.3011C16.1842 13.2888 16.1753 13.2738 16.1699 13.2582C16.1646 13.2426 16.162 13.2258 16.1631 13.2094C16.1642 13.193 16.1695 13.1772 16.1768 13.1625C16.1841 13.1477 16.1937 13.1342 16.2061 13.1234L16.2129 13.1176C17.1293 12.2943 17.8989 11.3208 18.4893 10.2396L18.6201 10.0004L18.4893 9.76111C17.9836 8.83413 17.3463 7.98523 16.5967 7.24158V7.2406C14.766 5.428 12.5392 4.50037 10 4.50037C9.46613 4.49975 8.93304 4.54261 8.40625 4.62927L8.40039 4.63025C8.3842 4.63311 8.36762 4.63284 8.35156 4.62927C8.33555 4.62569 8.32007 4.61917 8.30664 4.60974C8.29315 4.60021 8.28124 4.58759 8.27246 4.57361C8.26376 4.55969 8.25759 4.5439 8.25488 4.52771C8.25221 4.51152 8.25311 4.49487 8.25684 4.47888C8.26059 4.4628 8.26769 4.44736 8.27734 4.43396C8.28697 4.42065 8.29949 4.40936 8.31348 4.40076C8.32748 4.39219 8.34316 4.38671 8.35938 4.38416L8.3623 4.38318C8.90316 4.29388 9.45085 4.24969 9.99902 4.25037ZM7.49219 8.35583C7.12808 8.91189 6.95836 9.57313 7.01074 10.2357C7.06317 10.8983 7.33426 11.5251 7.78125 12.017C8.22832 12.5089 8.8268 12.8381 9.48145 12.9535C10.1359 13.0687 10.8103 12.964 11.3984 12.6547L11.9697 12.3539L11.5352 11.8754L8.28027 8.29333L7.8457 7.8158L7.49219 8.35583ZM10.6094 6.80701C11.2996 6.94111 11.9284 7.29556 12.4014 7.8158C12.8152 8.27109 13.0904 8.83279 13.1982 9.43494L13.2344 9.69568C13.237 9.72815 13.2268 9.76038 13.2061 9.78552C13.1861 9.80956 13.1577 9.82417 13.127 9.82849H13.1074C13.0762 9.82863 13.0456 9.81628 13.0225 9.79529C12.9996 9.77443 12.9854 9.74598 12.9824 9.71521V9.71228L12.9492 9.47302C12.8495 8.91849 12.5951 8.40104 12.2139 7.98181C11.7783 7.50301 11.1998 7.17789 10.5645 7.05408L10.5625 7.0531L10.5176 7.03552C10.5039 7.02662 10.4918 7.01507 10.4824 7.00134V7.00037C10.4639 6.97298 10.4567 6.93909 10.4629 6.90662C10.4692 6.87418 10.4883 6.84511 10.5156 6.82654C10.543 6.80803 10.5769 6.80084 10.6094 6.80701Z"
    stroke="#5E636E"/>
</svg>
