<svg width="8" height="14" viewBox="0 0 8 14" fill="none" xmlns="http://www.w3.org/2000/svg">
  <path
    d="M7.53063 9.46937C7.60055 9.53905 7.65603 9.62184 7.69388 9.71301C7.73173 9.80417 7.75122 9.90191 7.75122 10.0006C7.75122 10.0993 7.73173 10.1971 7.69388 10.2882C7.65603 10.3794 7.60055 10.4622 7.53063 10.5319L4.53063 13.5319C4.46095 13.6018 4.37816 13.6573 4.28699 13.6951C4.19583 13.733 4.09809 13.7525 3.99938 13.7525C3.90067 13.7525 3.80293 13.733 3.71176 13.6951C3.6206 13.6573 3.53781 13.6018 3.46813 13.5319L0.468128 10.5319C0.327232 10.391 0.248077 10.1999 0.248077 10.0006C0.248077 9.80136 0.327232 9.61027 0.468128 9.46937C0.609024 9.32847 0.800121 9.24932 0.999378 9.24932C1.19864 9.24932 1.38973 9.32847 1.53063 9.46937L4 11.9375L6.46938 9.4675C6.53916 9.39789 6.62197 9.34271 6.71309 9.30513C6.8042 9.26755 6.90183 9.24829 7.00039 9.24847C7.09895 9.24864 7.19651 9.26824 7.2875 9.30615C7.37848 9.34405 7.4611 9.39952 7.53063 9.46937ZM1.53063 4.53187L4 2.0625L6.46938 4.5325C6.61027 4.67339 6.80137 4.75255 7.00063 4.75255C7.19989 4.75255 7.39098 4.67339 7.53188 4.5325C7.67277 4.3916 7.75193 4.2005 7.75193 4.00125C7.75193 3.80199 7.67277 3.61089 7.53188 3.47L4.53188 0.469996C4.4622 0.400076 4.37941 0.344599 4.28824 0.306745C4.19708 0.268891 4.09934 0.249405 4.00063 0.249405C3.90192 0.249405 3.80418 0.268891 3.71301 0.306745C3.62185 0.344599 3.53906 0.400076 3.46938 0.469996L0.469378 3.47C0.328482 3.61089 0.249327 3.80199 0.249327 4.00125C0.249327 4.2005 0.328482 4.3916 0.469378 4.5325C0.610275 4.67339 0.801371 4.75255 1.00063 4.75255C1.19989 4.75255 1.39098 4.67339 1.53188 4.5325L1.53063 4.53187Z"
    fill="#434956"/>
</svg>
