<svg width="20" height="20" viewBox="0 0 20 20" fill="none" xmlns="http://www.w3.org/2000/svg">
  <path
    d="M9.16659 9.16675H6.66659M11.6666 5.83341H6.66659M3.33325 15.5384V6.71175C3.33325 4.33341 3.33325 3.14508 4.06575 2.40591C4.79742 1.66675 5.97659 1.66675 8.33325 1.66675H11.6666C14.0233 1.66675 15.2024 1.66675 15.9341 2.40591C16.6666 3.14425 16.6666 4.33341 16.6666 6.71175V15.5384C16.6666 16.7976 16.6666 17.4276 16.2816 17.6759C15.6524 18.0809 14.6799 17.2309 14.1908 16.9226C13.7866 16.6676 13.5849 16.5409 13.3599 16.5334C13.1183 16.5251 12.9124 16.6476 12.4758 16.9226L10.8833 17.9267C10.4533 18.1976 10.2391 18.3334 9.99992 18.3334C9.76075 18.3334 9.54658 18.1976 9.11658 17.9267L7.52492 16.9226C7.11992 16.6676 6.91825 16.5409 6.69409 16.5334C6.45159 16.5251 6.24575 16.6476 5.80909 16.9226C5.31992 17.2309 4.34742 18.0809 3.71742 17.6759C3.33325 17.4276 3.33325 16.7984 3.33325 15.5384Z"
    stroke="#62C069" stroke-width="1.5" stroke-linecap="round" stroke-linejoin="round"/>
</svg>
