<svg width="20" height="20" viewBox="0 0 20 20" fill="none" xmlns="http://www.w3.org/2000/svg" id="custom">
  <path
    d="M18.2032 12.6368C18.0923 12.5481 17.9546 12.4997 17.8126 12.4997C17.6706 12.4997 17.5328 12.5481 17.4219 12.6368C17.3485 12.6962 15.6251 14.0962 15.6251 15.9376C15.6251 16.5178 15.8555 17.0742 16.2658 17.4844C16.676 17.8946 17.2324 18.1251 17.8126 18.1251C18.3927 18.1251 18.9491 17.8946 19.3594 17.4844C19.7696 17.0742 20.0001 16.5178 20.0001 15.9376C20.0001 14.0962 18.2766 12.6962 18.2032 12.6368ZM17.8126 16.8751C17.5639 16.8751 17.3255 16.7763 17.1496 16.6005C16.9738 16.4247 16.8751 16.1862 16.8751 15.9376C16.8751 15.1423 17.4219 14.4118 17.8126 13.9899C18.2032 14.4134 18.7501 15.1462 18.7501 15.9376C18.7501 16.1862 18.6513 16.4247 18.4755 16.6005C18.2997 16.7763 18.0612 16.8751 17.8126 16.8751ZM17.9422 9.20557L9.54459 0.807913C9.42739 0.690792 9.26848 0.625 9.10279 0.625C8.9371 0.625 8.7782 0.690792 8.661 0.807913L5.48834 3.98448L3.56647 2.05791C3.44919 1.94074 3.29017 1.87496 3.12439 1.87503C2.95861 1.8751 2.79965 1.94103 2.68248 2.0583C2.56531 2.17558 2.49952 2.3346 2.4996 2.50038C2.49967 2.66616 2.5656 2.82512 2.68287 2.94229L4.60475 4.86416L1.17193 8.29463C0.82033 8.64626 0.622803 9.12315 0.622803 9.62041C0.622803 10.1177 0.82033 10.5946 1.17193 10.9462L7.80397 17.5782C8.15559 17.9298 8.63249 18.1274 9.12975 18.1274C9.62701 18.1274 10.1039 17.9298 10.4555 17.5782L17.9422 10.0915C18.0006 10.0334 18.0469 9.96441 18.0785 9.88839C18.1101 9.81237 18.1263 9.73086 18.1263 9.64854C18.1263 9.56622 18.1101 9.48471 18.0785 9.40869C18.0469 9.33267 18.0006 9.26364 17.9422 9.20557ZM9.57115 16.6923C9.45395 16.8094 9.29505 16.8752 9.12936 16.8752C8.96367 16.8752 8.80476 16.8094 8.68756 16.6923L2.05787 10.0626C1.94075 9.9454 1.87496 9.78649 1.87496 9.6208C1.87496 9.45511 1.94075 9.29621 2.05787 9.17901L5.48834 5.74776L7.76334 8.02276C7.51366 8.48508 7.43874 9.02183 7.55227 9.53486C7.66579 10.0479 7.96019 10.5029 8.38162 10.8167C8.80305 11.1305 9.32336 11.2822 9.8474 11.2439C10.3714 11.2056 10.8642 10.98 11.2356 10.6083C11.6069 10.2366 11.8321 9.74367 11.8699 9.21959C11.9077 8.69552 11.7556 8.17534 11.4414 7.75419C11.1273 7.33304 10.672 7.03904 10.1588 6.92597C9.64572 6.8129 9.10904 6.8883 8.64693 7.13838L6.37272 4.86416L9.10709 2.13369L16.6204 9.64698L9.57115 16.6923ZM9.68756 8.1251C9.90446 8.12545 10.1145 8.201 10.282 8.33888C10.4494 8.47675 10.5639 8.66842 10.6058 8.88122C10.6478 9.09402 10.6147 9.31479 10.5121 9.50591C10.4095 9.69703 10.2439 9.84667 10.0434 9.92934C9.84282 10.012 9.61983 10.0226 9.41238 9.95927C9.20493 9.89596 9.02585 9.76267 8.90565 9.58212C8.78545 9.40156 8.73158 9.18492 8.75321 8.9691C8.77485 8.75328 8.87064 8.55164 9.02428 8.39854C9.20037 8.22305 9.43896 8.1247 9.68756 8.1251Z"
    fill="#62C069"/>
</svg>
