<svg width="24" height="24" viewBox="0 0 24 24" fill="none" xmlns="http://www.w3.org/2000/svg" id="Eng">
<g clip-path="url(#clip0_1759_14030)">
<path fill-rule="evenodd" clip-rule="evenodd" d="M-6 0H39.6004V1.84617H-6V0ZM-6 3.69234H39.6004V5.53851H-6V3.69234ZM-6 7.38469H39.6004V9.23086H-6V7.38469ZM-6 11.077H39.6004V12.9232H-6V11.077ZM-6 14.7694H39.6004V16.6155H-6V14.7694ZM-6 18.4617H39.6004V20.3079H-6V18.4617ZM-6 22.1541H39.6004V24.0002H-6V22.1541Z" fill="#FC121F"/>
<path fill-rule="evenodd" clip-rule="evenodd" d="M-6 1.84619H39.6004V3.69236H-6V1.84619ZM-6 5.53854H39.6004V7.38471H-6V5.53854ZM-6 9.23088H39.6004V11.0771H-6V9.23088ZM-6 12.9232H39.6004V14.7694H-6V12.9232ZM-6 16.6156H39.6004V18.4617H-6V16.6156ZM-6 20.3079H39.6004V22.1541H-6V20.3079Z" fill="white"/>
<path fill-rule="evenodd" clip-rule="evenodd" d="M-6 0H12.2402V12.9232H-6V0Z" fill="#192F5D"/>
<path fill-rule="evenodd" clip-rule="evenodd" d="M-4.48617 0.553711L-4.30155 1.07064H-3.78462L-4.20924 1.38449L-4.04309 1.88295L-4.48617 1.5691L-4.89232 1.88295L-4.72617 1.38449L-5.16925 1.07064H-4.6154L-4.48617 0.553711ZM-1.43998 0.553711L-1.27383 1.07064H-0.738438L-1.18152 1.38449L-0.996902 1.88295L-1.43998 1.5691L-1.88306 1.88295L-1.69845 1.38449L-2.14153 1.07064H-1.60614L-1.43998 0.553711ZM1.6062 0.553711L1.77236 1.07064H2.30775L1.86466 1.38449L2.04928 1.88295L1.6062 1.5691L1.16312 1.88295L1.34774 1.38449L0.904655 1.07064H1.44004L1.6062 0.553711ZM4.63392 0.553711L4.81854 1.07064H5.33547L4.91085 1.38449L5.077 1.88295L4.63392 1.5691L4.2093 1.88295L4.37546 1.38449L3.93238 1.07064H4.48623L4.63392 0.553711ZM7.6801 0.553711L7.84626 1.07064H8.38165L7.93857 1.38449L8.12319 1.88295L7.66164 1.5691L7.23702 1.88295L7.40318 1.38449L6.9601 1.07064H7.49549L7.6801 0.553711ZM10.7263 0.553711L10.8924 1.07064H11.4278L10.9848 1.38449L11.1694 1.88295L10.7263 1.5691L10.2832 1.88295L10.4678 1.38449L10.0247 1.07064H10.5601L10.7263 0.553711ZM-2.95384 1.84603L-2.78769 2.36296H-2.2523L-2.69538 2.67681L-2.51076 3.17527L-2.95384 2.86142L-3.39693 3.17527L-3.21231 2.67681L-3.65539 2.36296H-3.12L-2.95384 1.84603ZM0.0738778 1.84603L0.258495 2.36296H0.775423L0.350804 2.67681L0.516958 3.17527L0.0738778 2.86142L-0.350742 3.17527L-0.184587 2.67681L-0.627668 2.36296H-0.0738165L0.0738778 1.84603ZM3.12006 1.84603L3.28622 2.36296H3.82161L3.37852 2.67681L3.56314 3.17527L3.12006 2.86142L2.67698 3.17527L2.8616 2.67681L2.41852 2.36296H2.95391L3.12006 1.84603ZM6.16625 1.84603L6.3324 2.36296H6.86779L6.42471 2.67681L6.60933 3.17527L6.16625 2.86142L5.72316 3.17527L5.90778 2.67681L5.4647 2.36296H6.00009L6.16625 1.84603ZM9.19397 1.84603L9.37858 2.36296H9.87705L9.45243 2.67681L9.61859 3.17527L9.1755 2.86142L8.75089 3.17527L8.91704 2.67681L8.47396 2.36296H9.02781L9.19397 1.84603ZM-4.46771 3.13835L-4.32001 3.65528H-3.76616L-4.20924 3.96913L-4.04309 4.46759L-4.48617 4.15374L-4.89232 4.46759L-4.72617 3.96913L-5.16925 3.65528H-4.6154L-4.46771 3.13835ZM-1.43998 3.13835L-1.27383 3.65528H-0.738438L-1.16306 3.96913L-0.996902 4.46759L-1.43998 4.15374L-1.8646 4.46759L-1.69845 3.96913L-2.14153 3.65528H-1.60614L-1.43998 3.13835ZM1.6062 3.13835L1.77236 3.65528H2.30775L1.86466 3.96913L2.04928 4.46759L1.6062 4.15374L1.16312 4.46759L1.34774 3.96913L0.904655 3.65528H1.44004L1.6062 3.13835ZM4.63392 3.13835L4.81854 3.65528H5.33547L4.91085 3.96913L5.077 4.46759L4.63392 4.15374L4.2093 4.46759L4.37546 3.96913L3.93238 3.65528H4.48623L4.63392 3.13835ZM7.6801 3.13835L7.84626 3.65528H8.38165L7.95703 3.96913L8.12319 4.46759L7.6801 4.15374L7.25549 4.46759L7.42164 3.96913L6.97856 3.65528H7.51395L7.6801 3.13835ZM10.7263 3.13835L10.8924 3.65528H11.4278L10.9848 3.96913L11.1694 4.46759L10.7263 4.15374L10.2832 4.46759L10.4678 3.96913L10.0247 3.65528H10.5601L10.7263 3.13835ZM-2.95384 4.43067L-2.78769 4.9476H-2.2523L-2.69538 5.26145L-2.51076 5.75991L-2.95384 5.44606L-3.39693 5.75991L-3.21231 5.26145L-3.65539 4.9476H-3.12L-2.95384 4.43067ZM0.0738778 4.43067L0.258495 4.9476H0.775423L0.350804 5.26145L0.516958 5.75991L0.0738778 5.44606L-0.350742 5.75991L-0.184587 5.26145L-0.627668 4.9476H-0.0738165L0.0738778 4.43067ZM3.12006 4.43067L3.28622 4.9476H3.82161L3.39699 5.26145L3.56314 5.75991L3.12006 5.44606L2.69544 5.75991L2.8616 5.26145L2.41852 4.9476H2.95391L3.12006 4.43067ZM6.16625 4.43067L6.3324 4.9476H6.86779L6.42471 5.26145L6.60933 5.75991L6.16625 5.44606L5.72316 5.75991L5.90778 5.26145L5.4647 4.9476H6.00009L6.16625 4.43067ZM9.19397 4.43067L9.37858 4.9476H9.87705L9.45243 5.26145L9.61859 5.75991L9.1755 5.44606L8.75089 5.75991L8.91704 5.26145L8.47396 4.9476H9.02781L9.19397 4.43067ZM-4.46771 5.72299L-4.32001 6.23992H-3.76616L-4.20924 6.55377L-4.04309 7.05223L-4.48617 6.73838L-4.89232 7.05223L-4.72617 6.55377L-5.16925 6.23992H-4.6154L-4.46771 5.72299ZM-1.43998 5.72299L-1.27383 6.23992H-0.738438L-1.16306 6.55377L-0.996902 7.05223L-1.43998 6.73838L-1.8646 7.05223L-1.69845 6.55377L-2.14153 6.23992H-1.60614L-1.43998 5.72299ZM1.6062 5.72299L1.77236 6.23992H2.30775L1.86466 6.55377L2.04928 7.05223L1.6062 6.73838L1.16312 7.05223L1.34774 6.55377L0.904655 6.23992H1.44004L1.6062 5.72299ZM4.63392 5.72299L4.81854 6.23992H5.33547L4.91085 6.55377L5.077 7.05223L4.63392 6.73838L4.2093 7.05223L4.37546 6.55377L3.93238 6.23992H4.48623L4.63392 5.72299ZM7.6801 5.72299L7.84626 6.23992H8.38165L7.95703 6.55377L8.12319 7.05223L7.6801 6.73838L7.25549 7.05223L7.42164 6.55377L6.97856 6.23992H7.51395L7.6801 5.72299ZM10.7263 5.72299L10.8924 6.23992H11.4278L10.9848 6.55377L11.1694 7.05223L10.7263 6.73838L10.2832 7.05223L10.4678 6.55377L10.0247 6.23992H10.5601L10.7263 5.72299ZM-2.95384 7.01531L-2.78769 7.53224H-2.2523L-2.69538 7.84609L-2.51076 8.34455L-2.95384 8.0307L-3.39693 8.34455L-3.21231 7.84609L-3.65539 7.53224H-3.12L-2.95384 7.01531ZM0.0738778 7.01531L0.258495 7.53224H0.775423L0.350804 7.84609L0.516958 8.34455L0.0738778 8.0307L-0.350742 8.34455L-0.184587 7.84609L-0.627668 7.53224H-0.0738165L0.0738778 7.01531ZM3.12006 7.01531L3.28622 7.53224H3.82161L3.39699 7.84609L3.56314 8.34455L3.12006 8.0307L2.69544 8.34455L2.8616 7.84609L2.41852 7.53224H2.95391L3.12006 7.01531ZM6.16625 7.01531L6.3324 7.53224H6.86779L6.42471 7.84609L6.60933 8.34455L6.16625 8.0307L5.72316 8.34455L5.90778 7.84609L5.4647 7.53224H6.00009L6.16625 7.01531ZM9.19397 7.01531L9.37858 7.53224H9.87705L9.45243 7.84609L9.61859 8.34455L9.1755 8.0307L8.75089 8.34455L8.91704 7.84609L8.47396 7.53224H9.02781L9.19397 7.01531ZM-4.46771 8.30763L-4.32001 8.82456H-3.76616L-4.20924 9.13841L-4.04309 9.63687L-4.48617 9.32302L-4.89232 9.63687L-4.72617 9.13841L-5.16925 8.82456H-4.6154L-4.46771 8.30763ZM-1.43998 8.30763L-1.27383 8.82456H-0.738438L-1.16306 9.13841L-0.996902 9.63687L-1.43998 9.32302L-1.8646 9.63687L-1.69845 9.13841L-2.14153 8.82456H-1.60614L-1.43998 8.30763ZM1.6062 8.30763L1.77236 8.82456H2.30775L1.86466 9.13841L2.04928 9.63687L1.6062 9.32302L1.16312 9.63687L1.34774 9.13841L0.904655 8.82456H1.44004L1.6062 8.30763ZM4.63392 8.30763L4.81854 8.82456H5.33547L4.91085 9.13841L5.077 9.63687L4.63392 9.32302L4.2093 9.63687L4.37546 9.13841L3.93238 8.82456H4.48623L4.63392 8.30763ZM7.6801 8.30763L7.84626 8.82456H8.38165L7.95703 9.13841L8.12319 9.63687L7.6801 9.32302L7.25549 9.63687L7.42164 9.13841L6.97856 8.82456H7.51395L7.6801 8.30763ZM10.7263 8.30763L10.8924 8.82456H11.4278L10.9848 9.13841L11.1694 9.63687L10.7263 9.32302L10.2832 9.63687L10.4678 9.13841L10.0247 8.82456H10.5601L10.7263 8.30763ZM-2.95384 9.59995L-2.78769 10.1169H-2.2523L-2.69538 10.4307L-2.51076 10.9292L-2.95384 10.6153L-3.39693 10.9292L-3.21231 10.4307L-3.65539 10.1169H-3.12L-2.95384 9.59995ZM0.0738778 9.59995L0.258495 10.1169H0.775423L0.350804 10.4307L0.516958 10.9292L0.0738778 10.6153L-0.350742 10.9292L-0.184587 10.4307L-0.627668 10.1169H-0.0738165L0.0738778 9.59995ZM3.12006 9.59995L3.28622 10.1169H3.82161L3.39699 10.4307L3.56314 10.9292L3.12006 10.6153L2.69544 10.9292L2.8616 10.4307L2.41852 10.1169H2.95391L3.12006 9.59995ZM6.16625 9.59995L6.3324 10.1169H6.86779L6.42471 10.4307L6.60933 10.9292L6.16625 10.6153L5.72316 10.9292L5.90778 10.4307L5.4647 10.1169H6.00009L6.16625 9.59995ZM9.19397 9.59995L9.37858 10.1169H9.87705L9.45243 10.4307L9.61859 10.9292L9.1755 10.6153L8.75089 10.9292L8.91704 10.4307L8.47396 10.1169H9.02781L9.19397 9.59995ZM-4.46771 10.8923L-4.32001 11.4092H-3.76616L-4.20924 11.723L-4.04309 12.2215L-4.48617 11.9077L-4.89232 12.2215L-4.72617 11.723L-5.16925 11.4092H-4.6154L-4.46771 10.8923ZM-1.43998 10.8923L-1.27383 11.4092H-0.738438L-1.16306 11.723L-0.996902 12.2215L-1.43998 11.9077L-1.8646 12.2215L-1.69845 11.723L-2.14153 11.4092H-1.60614L-1.43998 10.8923ZM1.6062 10.8923L1.77236 11.4092H2.30775L1.86466 11.723L2.04928 12.2215L1.6062 11.9077L1.16312 12.2215L1.34774 11.723L0.904655 11.4092H1.44004L1.6062 10.8923ZM4.63392 10.8923L4.81854 11.4092H5.33547L4.91085 11.723L5.077 12.2215L4.63392 11.9077L4.2093 12.2215L4.37546 11.723L3.93238 11.4092H4.48623L4.63392 10.8923ZM7.6801 10.8923L7.84626 11.4092H8.38165L7.95703 11.723L8.12319 12.2215L7.6801 11.9077L7.25549 12.2215L7.42164 11.723L6.97856 11.4092H7.51395L7.6801 10.8923ZM10.7263 10.8923L10.8924 11.4092H11.4278L10.9848 11.723L11.1694 12.2215L10.7263 11.9077L10.2832 12.2215L10.4678 11.723L10.0247 11.4092H10.5601L10.7263 10.8923Z" fill="white"/>
</g>
<rect x="0.5" y="0.5" width="23" height="23" rx="11.5" stroke="#F1F0F4"/>
<defs>
<clipPath id="clip0_1759_14030">
<rect width="24" height="24" rx="12" fill="white"/>
</clipPath>
</defs>
</svg>
