<svg width="20" height="20" viewBox="0 0 20 20" fill="none" xmlns="http://www.w3.org/2000/svg">
  <path
    d="M5.10412 2.70841C4.91073 2.70841 4.72526 2.78524 4.58852 2.92198C4.45177 3.05873 4.37495 3.24419 4.37495 3.43758V8.82092C4.2345 8.77143 4.08634 8.74744 3.93745 8.75008C3.72623 8.74974 3.51838 8.80292 3.33328 8.90466V3.43758C3.33328 2.96793 3.51985 2.51751 3.85195 2.18541C4.18404 1.85332 4.63446 1.66675 5.10412 1.66675H10.3154C10.548 1.66672 10.7783 1.71251 10.9932 1.80152C11.2081 1.89053 11.4034 2.02101 11.5679 2.1855L16.1479 6.7655C16.3124 6.92997 16.4428 7.12523 16.5318 7.34014C16.6209 7.55505 16.6666 7.78539 16.6666 8.018V16.5626C16.6666 17.0322 16.48 17.4827 16.1479 17.8148C15.8159 18.1468 15.3654 18.3334 14.8958 18.3334H9.80245C9.9325 18.1511 10.0016 17.9324 9.99995 17.7084C10.002 17.5655 9.97464 17.4236 9.91953 17.2917H14.8958C15.0892 17.2917 15.2746 17.2149 15.4114 17.0782C15.5481 16.9414 15.6249 16.756 15.6249 16.5626V8.33342H11.7708C11.3011 8.33342 10.8507 8.14685 10.5186 7.81475C10.1865 7.48265 9.99995 7.03224 9.99995 6.56258V2.70841H5.10412ZM11.7708 7.29175H15.2008L11.0416 3.13258V6.56258C11.0416 6.96508 11.3683 7.29175 11.7708 7.29175ZM2.84703 14.6301C2.57596 14.2798 2.20685 14.018 1.78662 13.878L0.702449 13.5259C0.61914 13.4963 0.547049 13.4416 0.496071 13.3693C0.445092 13.2971 0.417725 13.2108 0.417725 13.1224C0.417725 13.0339 0.445092 12.9477 0.496071 12.8754C0.547049 12.8032 0.61914 12.7485 0.702449 12.7188L1.78662 12.3667C2.10772 12.256 2.39933 12.0735 2.63926 11.833C2.87919 11.5926 3.06112 11.3006 3.1712 10.9792L3.18037 10.9526L3.53287 9.86925C3.56223 9.78561 3.61686 9.71315 3.68918 9.66189C3.76151 9.61063 3.84797 9.5831 3.93662 9.5831C4.02526 9.5831 4.11172 9.61063 4.18405 9.66189C4.25638 9.71315 4.311 9.78561 4.34037 9.86925L4.69287 10.9526C4.80254 11.2821 4.98754 11.5815 5.23317 11.827C5.4788 12.0724 5.7783 12.2573 6.10787 12.3667L7.19245 12.7188L7.21411 12.7242C7.29742 12.7539 7.36951 12.8086 7.42049 12.8809C7.47147 12.9531 7.49884 13.0394 7.49884 13.1278C7.49884 13.2162 7.47147 13.3025 7.42049 13.3747C7.36951 13.447 7.29742 13.5017 7.21411 13.5313L6.12953 13.8834C5.79996 13.9929 5.50047 14.1777 5.25484 14.4232C5.0092 14.6687 4.8242 14.9681 4.71453 15.2976L4.36203 16.3809L4.35162 16.4076C4.32646 16.4662 4.2885 16.5185 4.24051 16.5606C4.19253 16.6027 4.13573 16.6336 4.07429 16.6509C4.01285 16.6682 3.94831 16.6715 3.88542 16.6606C3.82252 16.6497 3.76285 16.6249 3.71078 16.588C3.63865 16.5369 3.58408 16.4647 3.55453 16.3813L3.20203 15.2976C3.1222 15.0567 3.00217 14.831 2.84703 14.6301ZM9.0037 17.4934L8.42953 17.3067C8.25512 17.2488 8.09661 17.1509 7.96657 17.0211C7.83654 16.8912 7.73854 16.7328 7.68037 16.5584L7.49411 15.9847C7.4786 15.9403 7.44967 15.9018 7.41134 15.8746C7.373 15.8474 7.32716 15.8328 7.28016 15.8328C7.23315 15.8328 7.18731 15.8474 7.14898 15.8746C7.11064 15.9018 7.08172 15.9403 7.0662 15.9847L6.87953 16.5584C6.82253 16.7315 6.72632 16.8891 6.59839 17.0189C6.47046 17.1487 6.31429 17.2472 6.14203 17.3067L5.56787 17.4934C5.52397 17.5093 5.48604 17.5383 5.45922 17.5765C5.43241 17.6147 5.41803 17.6603 5.41803 17.707C5.41803 17.7536 5.43241 17.7992 5.45922 17.8374C5.48604 17.8756 5.52397 17.9046 5.56787 17.9205L6.14203 18.1072C6.20509 18.128 6.26592 18.1541 6.32453 18.1855L6.32578 18.1917C6.59325 18.3347 6.79564 18.5748 6.8912 18.8626L7.07787 19.4363C7.09322 19.4789 7.12095 19.5159 7.15749 19.5426C7.19403 19.5693 7.23771 19.5845 7.28294 19.5862C7.32817 19.5879 7.37287 19.5761 7.41131 19.5522C7.44976 19.5283 7.48019 19.4935 7.4987 19.4522V19.4488L7.50537 19.4322L7.69203 18.8584C7.75021 18.6841 7.8482 18.5257 7.97824 18.3958C8.10828 18.2659 8.26679 18.1681 8.4412 18.1101L9.01536 17.9234C9.05926 17.9075 9.0972 17.8785 9.12401 17.8403C9.15082 17.8021 9.1652 17.7566 9.1652 17.7099C9.1652 17.6632 9.15082 17.6177 9.12401 17.5794C9.0972 17.5412 9.05926 17.5122 9.01536 17.4963L9.0037 17.4934Z"
    fill="#62C069"/>
</svg>
