<svg width="20" height="20" viewBox="0 0 20 20" fill="none" xmlns="http://www.w3.org/2000/svg" id="textToVoice">
  <path
    d="M15.3125 16.4584C15.3125 17.4942 14.4958 18.3334 13.49 18.3334C12.4825 18.3334 11.6667 17.4942 11.6667 16.4584C11.6667 15.4226 12.4833 14.5834 13.49 14.5834C14.4967 14.5834 15.3125 15.4226 15.3125 16.4584ZM15.3125 16.4584V10.8334C15.5558 11.2084 15.75 12.7834 17.5 13.0834M9.16667 18.3334H8.93917C6.2225 18.3334 4.8625 18.3334 3.91917 17.6684C3.65071 17.4802 3.41075 17.2542 3.20667 16.9976C2.5 16.1092 2.5 14.8309 2.5 12.2726V10.1517C2.5 7.68258 2.5 6.44758 2.89083 5.46175C3.51917 3.87591 4.8475 2.62591 6.5325 2.03425C7.57917 1.66675 8.89 1.66675 11.515 1.66675C13.0133 1.66675 13.7633 1.66675 14.3617 1.87675C15.3242 2.21508 16.0833 2.92925 16.4425 3.83508C16.6667 4.39841 16.6667 5.10425 16.6667 6.51508V8.75008"
    stroke="#62C069" stroke-width="1.5" stroke-linecap="round" stroke-linejoin="round"/>
  <path
    d="M2.5 10.0001C2.5 9.26344 2.79263 8.55697 3.31351 8.03609C3.83439 7.51521 4.54086 7.22258 5.2775 7.22258C5.8325 7.22258 6.48667 7.31925 7.02583 7.17508C7.26142 7.11168 7.47621 6.98746 7.64865 6.81487C7.82109 6.64228 7.94513 6.42739 8.00833 6.19175C8.1525 5.65258 8.05583 4.99841 8.05583 4.44341C8.05605 3.70692 8.34878 3.00067 8.86964 2.47996C9.3905 1.95926 10.0968 1.66675 10.8333 1.66675"
    stroke="#62C069" stroke-width="1.5" stroke-linecap="round" stroke-linejoin="round"/>
</svg>
