<svg width="24" height="24" viewBox="0 0 24 24" fill="none" xmlns="http://www.w3.org/2000/svg" id="uzbek">
<g clip-path="url(#clip0_1759_14090)">
<path d="M0 15H24V24L0 24V15Z" fill="#1EB53A"/>
<path d="M0 0H24V9H0V0Z" fill="#0099B5"/>
<path d="M0 9H24V17H0V9Z" fill="#CE1126"/>
<path d="M0 10H24V16L0 16V10Z" fill="white"/>
<path d="M7.07854 7.79331C8.12604 7.79331 8.9752 6.94415 8.9752 5.89666C8.9752 4.84916 8.12604 4 7.07854 4C6.03105 4 5.18188 4.84916 5.18188 5.89666C5.18188 6.94415 6.03105 7.79331 7.07854 7.79331Z" fill="white"/>
<path d="M7.92135 7.79331C8.96884 7.79331 9.818 6.94415 9.818 5.89666C9.818 4.84916 8.96884 4 7.92135 4C6.87385 4 6.02469 4.84916 6.02469 5.89666C6.02469 6.94415 6.87385 7.79331 7.92135 7.79331Z" fill="#0099B5"/>
<path d="M11.4837 7.14258L11.3624 7.51617L11.5492 7.57687L11.4837 7.14258Z" fill="white"/>
<path d="M11.4837 7.14258L11.6051 7.51617L11.4183 7.57687L11.4837 7.14258Z" fill="white"/>
<path d="M11.8574 7.41406H11.4646V7.61047L11.8574 7.41406Z" fill="white"/>
<path d="M11.8573 7.41406L11.5395 7.64495L11.424 7.48606L11.8573 7.41406Z" fill="white"/>
<path d="M11.1102 7.41406L11.428 7.64495L11.5434 7.48606L11.1102 7.41406Z" fill="white"/>
<path d="M11.1102 7.41406H11.503V7.61047L11.1102 7.41406Z" fill="white"/>
<path d="M11.7146 7.85308L11.5932 7.47949L11.4064 7.54018L11.7146 7.85308Z" fill="white"/>
<path d="M11.7146 7.85318L11.3968 7.62229L11.5122 7.46338L11.7146 7.85318Z" fill="white"/>
<path d="M11.2528 7.85318L11.5706 7.62229L11.4551 7.46338L11.2528 7.85318Z" fill="white"/>
<path d="M11.2529 7.85308L11.3743 7.47949L11.5611 7.54018L11.2529 7.85308Z" fill="white"/>
<path d="M11.4837 5.57129L11.3624 5.94488L11.5492 6.00558L11.4837 5.57129Z" fill="white"/>
<path d="M11.4837 5.57129L11.6051 5.94488L11.4183 6.00558L11.4837 5.57129Z" fill="white"/>
<path d="M11.8574 5.84277H11.4646V6.03918L11.8574 5.84277Z" fill="white"/>
<path d="M11.8573 5.84277L11.5395 6.07366L11.424 5.91477L11.8573 5.84277Z" fill="white"/>
<path d="M11.1102 5.84277L11.428 6.07366L11.5434 5.91477L11.1102 5.84277Z" fill="white"/>
<path d="M11.1102 5.84277H11.503V6.03918L11.1102 5.84277Z" fill="white"/>
<path d="M11.7146 6.2818L11.5932 5.9082L11.4064 5.96889L11.7146 6.2818Z" fill="white"/>
<path d="M11.7146 6.28189L11.3968 6.051L11.5122 5.89209L11.7146 6.28189Z" fill="white"/>
<path d="M11.2528 6.28189L11.5706 6.051L11.4551 5.89209L11.2528 6.28189Z" fill="white"/>
<path d="M11.2529 6.2818L11.3743 5.9082L11.5611 5.96889L11.2529 6.2818Z" fill="white"/>
<path d="M11.4837 4L11.3624 4.37359L11.5492 4.43429L11.4837 4Z" fill="white"/>
<path d="M11.4837 4L11.6051 4.37359L11.4183 4.43429L11.4837 4Z" fill="white"/>
<path d="M11.8574 4.27148H11.4646V4.46789L11.8574 4.27148Z" fill="white"/>
<path d="M11.8573 4.27148L11.5395 4.50238L11.424 4.34348L11.8573 4.27148Z" fill="white"/>
<path d="M11.1102 4.27148L11.428 4.50238L11.5434 4.34348L11.1102 4.27148Z" fill="white"/>
<path d="M11.1102 4.27148H11.503V4.46789L11.1102 4.27148Z" fill="white"/>
<path d="M11.7147 4.71051L11.5933 4.33691L11.4065 4.3976L11.7147 4.71051Z" fill="white"/>
<path d="M11.7146 4.7106L11.3968 4.47971L11.5122 4.3208L11.7146 4.7106Z" fill="white"/>
<path d="M11.2529 4.7106L11.5707 4.47971L11.4552 4.3208L11.2529 4.7106Z" fill="white"/>
<path d="M11.2529 4.71051L11.3743 4.33691L11.5611 4.3976L11.2529 4.71051Z" fill="white"/>
<path d="M13.055 7.14258L12.9337 7.51617L13.1205 7.57687L13.055 7.14258Z" fill="white"/>
<path d="M13.0551 7.14258L13.1765 7.51617L12.9897 7.57687L13.0551 7.14258Z" fill="white"/>
<path d="M13.4286 7.41406H13.0358V7.61047L13.4286 7.41406Z" fill="white"/>
<path d="M13.4288 7.41406L13.111 7.64495L12.9956 7.48606L13.4288 7.41406Z" fill="white"/>
<path d="M12.6815 7.41406L12.9993 7.64495L13.1147 7.48606L12.6815 7.41406Z" fill="white"/>
<path d="M12.6815 7.41406H13.0743V7.61047L12.6815 7.41406Z" fill="white"/>
<path d="M13.2859 7.85308L13.1645 7.47949L12.9777 7.54018L13.2859 7.85308Z" fill="white"/>
<path d="M13.2859 7.85318L12.9681 7.62229L13.0835 7.46338L13.2859 7.85318Z" fill="white"/>
<path d="M12.8241 7.85318L13.1419 7.62229L13.0264 7.46338L12.8241 7.85318Z" fill="white"/>
<path d="M12.8241 7.85308L12.9455 7.47949L13.1323 7.54018L12.8241 7.85308Z" fill="white"/>
<path d="M13.055 5.57129L12.9337 5.94488L13.1205 6.00558L13.055 5.57129Z" fill="white"/>
<path d="M13.0551 5.57129L13.1765 5.94488L12.9897 6.00558L13.0551 5.57129Z" fill="white"/>
<path d="M13.4286 5.84277H13.0358V6.03918L13.4286 5.84277Z" fill="white"/>
<path d="M13.4288 5.84277L13.111 6.07366L12.9956 5.91477L13.4288 5.84277Z" fill="white"/>
<path d="M12.6815 5.84277L12.9993 6.07366L13.1147 5.91477L12.6815 5.84277Z" fill="white"/>
<path d="M12.6815 5.84277H13.0743V6.03918L12.6815 5.84277Z" fill="white"/>
<path d="M13.2859 6.2818L13.1645 5.9082L12.9777 5.96889L13.2859 6.2818Z" fill="white"/>
<path d="M13.2859 6.28189L12.9681 6.051L13.0835 5.89209L13.2859 6.28189Z" fill="white"/>
<path d="M12.8241 6.28189L13.1419 6.051L13.0264 5.89209L12.8241 6.28189Z" fill="white"/>
<path d="M12.8241 6.2818L12.9455 5.9082L13.1323 5.96889L12.8241 6.2818Z" fill="white"/>
<path d="M13.055 4L12.9337 4.37359L13.1205 4.43429L13.055 4Z" fill="white"/>
<path d="M13.055 4L13.1764 4.37359L12.9896 4.43429L13.055 4Z" fill="white"/>
<path d="M13.4286 4.27148H13.0358V4.46789L13.4286 4.27148Z" fill="white"/>
<path d="M13.4287 4.27148L13.1109 4.50238L12.9955 4.34348L13.4287 4.27148Z" fill="white"/>
<path d="M12.6814 4.27148L12.9992 4.50238L13.1146 4.34348L12.6814 4.27148Z" fill="white"/>
<path d="M12.6814 4.27148H13.0742V4.46789L12.6814 4.27148Z" fill="white"/>
<path d="M13.2859 4.71051L13.1645 4.33691L12.9777 4.3976L13.2859 4.71051Z" fill="white"/>
<path d="M13.2859 4.7106L12.9681 4.47971L13.0835 4.3208L13.2859 4.7106Z" fill="white"/>
<path d="M12.8241 4.7106L13.1419 4.47971L13.0264 4.3208L12.8241 4.7106Z" fill="white"/>
<path d="M12.8241 4.71051L12.9455 4.33691L13.1323 4.3976L12.8241 4.71051Z" fill="white"/>
<path d="M14.6262 7.14258L14.5049 7.51617L14.6916 7.57687L14.6262 7.14258Z" fill="white"/>
<path d="M14.6263 7.14258L14.7477 7.51617L14.5609 7.57687L14.6263 7.14258Z" fill="white"/>
<path d="M14.9999 7.41406H14.6071V7.61047L14.9999 7.41406Z" fill="white"/>
<path d="M14.9999 7.41406L14.6821 7.64495L14.5667 7.48606L14.9999 7.41406Z" fill="white"/>
<path d="M14.2527 7.41406L14.5704 7.64495L14.6859 7.48606L14.2527 7.41406Z" fill="white"/>
<path d="M14.2527 7.41406H14.6455V7.61047L14.2527 7.41406Z" fill="white"/>
<path d="M14.8572 7.85308L14.7358 7.47949L14.549 7.54018L14.8572 7.85308Z" fill="white"/>
<path d="M14.8572 7.85318L14.5394 7.62229L14.6548 7.46338L14.8572 7.85318Z" fill="white"/>
<path d="M14.3954 7.85318L14.7132 7.62229L14.5977 7.46338L14.3954 7.85318Z" fill="white"/>
<path d="M14.3954 7.85308L14.5168 7.47949L14.7036 7.54018L14.3954 7.85308Z" fill="white"/>
<path d="M14.6262 5.57129L14.5049 5.94488L14.6916 6.00558L14.6262 5.57129Z" fill="white"/>
<path d="M14.6263 5.57129L14.7477 5.94488L14.5609 6.00558L14.6263 5.57129Z" fill="white"/>
<path d="M14.9999 5.84277H14.6071V6.03918L14.9999 5.84277Z" fill="white"/>
<path d="M14.9999 5.84277L14.6821 6.07366L14.5667 5.91477L14.9999 5.84277Z" fill="white"/>
<path d="M14.2527 5.84277L14.5704 6.07366L14.6859 5.91477L14.2527 5.84277Z" fill="white"/>
<path d="M14.2527 5.84277H14.6455V6.03918L14.2527 5.84277Z" fill="white"/>
<path d="M14.8572 6.2818L14.7358 5.9082L14.549 5.96889L14.8572 6.2818Z" fill="white"/>
<path d="M14.8572 6.28189L14.5394 6.051L14.6548 5.89209L14.8572 6.28189Z" fill="white"/>
<path d="M14.3954 6.28189L14.7132 6.051L14.5977 5.89209L14.3954 6.28189Z" fill="white"/>
<path d="M14.3954 6.2818L14.5168 5.9082L14.7036 5.96889L14.3954 6.2818Z" fill="white"/>
<path d="M14.6262 4L14.5049 4.37359L14.6916 4.43429L14.6262 4Z" fill="white"/>
<path d="M14.6263 4L14.7477 4.37359L14.5609 4.43429L14.6263 4Z" fill="white"/>
<path d="M14.9999 4.27148H14.6071V4.46789L14.9999 4.27148Z" fill="white"/>
<path d="M14.9999 4.27148L14.6821 4.50238L14.5667 4.34348L14.9999 4.27148Z" fill="white"/>
<path d="M14.2527 4.27148L14.5704 4.50238L14.6859 4.34348L14.2527 4.27148Z" fill="white"/>
<path d="M14.2527 4.27148H14.6455V4.46789L14.2527 4.27148Z" fill="white"/>
<path d="M14.8572 4.71051L14.7358 4.33691L14.549 4.3976L14.8572 4.71051Z" fill="white"/>
<path d="M14.8572 4.7106L14.5394 4.47971L14.6548 4.3208L14.8572 4.7106Z" fill="white"/>
<path d="M14.3954 4.7106L14.7132 4.47971L14.5977 4.3208L14.3954 4.7106Z" fill="white"/>
<path d="M14.3954 4.71051L14.5168 4.33691L14.7036 4.3976L14.3954 4.71051Z" fill="white"/>
<path d="M8.34111 7.14258L8.21973 7.51617L8.40652 7.57687L8.34111 7.14258Z" fill="white"/>
<path d="M8.34108 7.14258L8.46246 7.51617L8.27567 7.57687L8.34108 7.14258Z" fill="white"/>
<path d="M8.71478 7.41406H8.32196V7.61047L8.71478 7.41406Z" fill="white"/>
<path d="M8.71476 7.41406L8.39697 7.64495L8.28152 7.48606L8.71476 7.41406Z" fill="white"/>
<path d="M7.96765 7.41406L8.28545 7.64495L8.40089 7.48606L7.96765 7.41406Z" fill="white"/>
<path d="M7.96765 7.41406H8.36047V7.61047L7.96765 7.41406Z" fill="white"/>
<path d="M8.57194 7.85308L8.45056 7.47949L8.26376 7.54018L8.57194 7.85308Z" fill="white"/>
<path d="M8.57194 7.85318L8.25415 7.62229L8.3696 7.46338L8.57194 7.85318Z" fill="white"/>
<path d="M8.11029 7.85318L8.42808 7.62229L8.31264 7.46338L8.11029 7.85318Z" fill="white"/>
<path d="M8.11029 7.85308L8.23168 7.47949L8.41847 7.54018L8.11029 7.85308Z" fill="white"/>
<path d="M9.91243 7.14258L9.79105 7.51617L9.97784 7.57687L9.91243 7.14258Z" fill="white"/>
<path d="M9.91237 7.14258L10.0338 7.51617L9.84695 7.57687L9.91237 7.14258Z" fill="white"/>
<path d="M10.2859 7.41406H9.89313V7.61047L10.2859 7.41406Z" fill="white"/>
<path d="M10.286 7.41406L9.96817 7.64495L9.85272 7.48606L10.286 7.41406Z" fill="white"/>
<path d="M9.53876 7.41406L9.85655 7.64495L9.972 7.48606L9.53876 7.41406Z" fill="white"/>
<path d="M9.53876 7.41406H9.93158V7.61047L9.53876 7.41406Z" fill="white"/>
<path d="M10.1433 7.85308L10.0219 7.47949L9.83508 7.54018L10.1433 7.85308Z" fill="white"/>
<path d="M10.1432 7.85318L9.82544 7.62229L9.94089 7.46338L10.1432 7.85318Z" fill="white"/>
<path d="M9.68137 7.85318L9.99916 7.62229L9.88371 7.46338L9.68137 7.85318Z" fill="white"/>
<path d="M9.68149 7.85308L9.80287 7.47949L9.98967 7.54018L9.68149 7.85308Z" fill="white"/>
<path d="M9.91243 5.57129L9.79105 5.94488L9.97784 6.00558L9.91243 5.57129Z" fill="white"/>
<path d="M9.91237 5.57129L10.0338 5.94488L9.84695 6.00558L9.91237 5.57129Z" fill="white"/>
<path d="M10.2859 5.84277H9.89313V6.03918L10.2859 5.84277Z" fill="white"/>
<path d="M10.286 5.84277L9.96817 6.07366L9.85272 5.91477L10.286 5.84277Z" fill="white"/>
<path d="M9.53876 5.84277L9.85655 6.07366L9.972 5.91477L9.53876 5.84277Z" fill="white"/>
<path d="M9.53876 5.84277H9.93158V6.03918L9.53876 5.84277Z" fill="white"/>
<path d="M10.1433 6.2818L10.0219 5.9082L9.83508 5.96889L10.1433 6.2818Z" fill="white"/>
<path d="M10.1432 6.28189L9.82544 6.051L9.94089 5.89209L10.1432 6.28189Z" fill="white"/>
<path d="M9.68137 6.28189L9.99916 6.051L9.88371 5.89209L9.68137 6.28189Z" fill="white"/>
<path d="M9.68149 6.2818L9.80287 5.9082L9.98967 5.96889L9.68149 6.2818Z" fill="white"/>
</g>
<rect x="0.5" y="0.5" width="23" height="23" rx="11.5" stroke="#F1F0F4"/>
<defs>
<clipPath id="clip0_1759_14090">
<rect width="24" height="24" rx="12" fill="white"/>
</clipPath>
</defs>
</svg>
