<svg width="16" height="16" viewBox="0 0 16 16" fill="none" xmlns="http://www.w3.org/2000/svg">
  <path
    d="M13.1038 7.64625C13.1503 7.69268 13.1871 7.74783 13.2123 7.80853C13.2375 7.86922 13.2504 7.93429 13.2504 8C13.2504 8.0657 13.2375 8.13077 13.2123 8.19147C13.1871 8.25216 13.1503 8.30731 13.1038 8.35375L7.97564 13.4787C7.31915 14.1352 6.42879 14.5039 5.50042 14.5038C4.57206 14.5038 3.68174 14.1349 3.02533 13.4784C2.36892 12.8219 2.00019 11.9316 2.00024 11.0032C2.0003 10.0748 2.36915 9.18453 3.02564 8.52812L9.22939 2.23312C9.69808 1.76394 10.334 1.50015 10.9971 1.4998C11.6603 1.49945 12.2965 1.76256 12.7656 2.23125C13.2348 2.69993 13.4986 3.33581 13.499 3.99898C13.4993 4.66216 13.2362 5.29831 12.7675 5.7675L6.56252 12.0625C6.28073 12.3443 5.89853 12.5026 5.50002 12.5026C5.1015 12.5026 4.71931 12.3443 4.43752 12.0625C4.15573 11.7807 3.99742 11.3985 3.99742 11C3.99742 10.6015 4.15573 10.2193 4.43752 9.9375L9.64377 4.64875C9.68938 4.60009 9.74425 4.56106 9.80517 4.53393C9.86609 4.50681 9.93182 4.49214 9.99849 4.4908C10.0652 4.48946 10.1314 4.50147 10.1934 4.52612C10.2554 4.55077 10.3118 4.58757 10.3593 4.63434C10.4068 4.68112 10.4445 4.73693 10.4701 4.79849C10.4958 4.86005 10.5088 4.92612 10.5086 4.9928C10.5083 5.05949 10.4947 5.12544 10.4685 5.18679C10.4423 5.24813 10.4042 5.30362 10.3563 5.35L5.14939 10.6444C5.10277 10.6906 5.06572 10.7456 5.04035 10.8062C5.01498 10.8667 5.00179 10.9317 5.00152 10.9974C5.00126 11.0631 5.01394 11.1281 5.03883 11.1889C5.06372 11.2497 5.10033 11.3049 5.14658 11.3516C5.19283 11.3982 5.24781 11.4352 5.30838 11.4606C5.36895 11.486 5.43392 11.4992 5.49959 11.4994C5.56526 11.4997 5.63034 11.487 5.69111 11.4621C5.75188 11.4372 5.80715 11.4006 5.85377 11.3544L12.0581 5.0625C12.3399 4.78128 12.4985 4.39965 12.4989 4.00154C12.4993 3.60344 12.3415 3.22148 12.0603 2.93968C11.7791 2.65789 11.3975 2.49935 10.9994 2.49894C10.6013 2.49853 10.2193 2.65628 9.93752 2.9375L3.73502 9.23C3.50266 9.46198 3.31827 9.73747 3.19238 10.0407C3.06649 10.344 3.00156 10.669 3.0013 10.9974C3.00103 11.3257 3.06545 11.6509 3.19086 11.9544C3.31627 12.2578 3.50022 12.5336 3.73221 12.7659C3.96419 12.9983 4.23968 13.1827 4.54293 13.3086C4.84617 13.4345 5.17125 13.4994 5.49959 13.4997C5.82793 13.4999 6.15311 13.4355 6.45656 13.3101C6.76001 13.1847 7.03579 13.0007 7.26814 12.7687L12.3969 7.64375C12.491 7.55038 12.6183 7.49819 12.7508 7.49866C12.8834 7.49913 13.0103 7.55222 13.1038 7.64625Z"
    fill="#434956"/>
</svg>
