<svg width="13" height="13" viewBox="0 0 13 13" fill="none" xmlns="http://www.w3.org/2000/svg">
  <path
    d="M12.2075 3.5856L9.41438 0.793096C9.32152 0.700213 9.21127 0.626533 9.08993 0.576264C8.96859 0.525995 8.83853 0.500122 8.70719 0.500122C8.57585 0.500122 8.4458 0.525995 8.32446 0.576264C8.20312 0.626533 8.09287 0.700213 8 0.793096L0.29313 8.49997C0.199867 8.59249 0.125926 8.70263 0.0756045 8.82398C0.025283 8.94533 -0.000414649 9.07548 5.05934e-06 9.20685V12C5.05934e-06 12.2652 0.105362 12.5195 0.292898 12.7071C0.480435 12.8946 0.734789 13 1.00001 13H11.5C11.6326 13 11.7598 12.9473 11.8536 12.8535C11.9473 12.7598 12 12.6326 12 12.5C12 12.3674 11.9473 12.2402 11.8536 12.1464C11.7598 12.0526 11.6326 12 11.5 12H5.20751L12.2075 4.99997C12.3004 4.90711 12.3741 4.79686 12.4243 4.67552C12.4746 4.55418 12.5005 4.42412 12.5005 4.29278C12.5005 4.16144 12.4746 4.03139 12.4243 3.91005C12.3741 3.78871 12.3004 3.67846 12.2075 3.5856ZM3.79313 12H1.00001V9.20685L6.50001 3.70685L9.29313 6.49997L3.79313 12ZM10 5.7931L7.20751 2.99997L8.70751 1.49997L11.5 4.2931L10 5.7931Z"
    fill="#434956"/>
</svg>
