<svg width="16" height="16" viewBox="0 0 16 16" fill="none" xmlns="http://www.w3.org/2000/svg">
  <path
    d="M6.948 11.9979C6.90472 11.9975 6.86146 11.9965 6.81812 11.995C6.86135 11.9966 6.90463 11.9974 6.948 11.9979ZM7.31519 11.9881C7.22462 11.994 7.13382 11.997 7.04272 11.9979C7.13382 11.9971 7.2246 11.9939 7.31519 11.9881ZM6.70581 11.9901C6.68794 11.9891 6.66998 11.9894 6.6521 11.9881C6.62146 11.9861 6.59084 11.982 6.5603 11.9794C6.6087 11.9837 6.65719 11.9872 6.70581 11.9901ZM7.67456 11.951C7.59249 11.9623 7.51022 11.9721 7.42749 11.9794C7.51023 11.9722 7.59246 11.9622 7.67456 11.951ZM6.87964 1.98717C8.16767 1.95801 9.41743 2.42707 10.3689 3.29576C11.3204 4.16454 11.9003 5.36674 11.988 6.65221C11.9897 6.67693 11.9896 6.70172 11.991 6.72643C11.9781 6.49163 11.9503 6.25676 11.9041 6.02428C11.7111 5.05462 11.2349 4.16386 10.5359 3.46471C9.83665 2.76546 8.94522 2.28948 7.97534 2.09654C7.00548 1.90362 6.00027 2.00233 5.08667 2.38072C4.17304 2.75916 3.39194 3.40027 2.84253 4.22252C2.29326 5.04467 1.99978 6.01111 1.99976 6.99986V7.00084C2.0013 8.32616 2.52847 9.59686 3.46558 10.534C4.27871 11.3472 5.34318 11.8512 6.47632 11.9715C5.2574 11.8451 4.12472 11.277 3.29565 10.369C2.42696 9.41754 1.9579 8.16778 1.98706 6.87975C2.01634 5.59155 2.54176 4.36411 3.45288 3.45299C4.36401 2.54186 5.59145 2.01644 6.87964 1.98717ZM8.02515 11.8905C7.9487 11.9066 7.87191 11.9209 7.79468 11.9335C7.87194 11.921 7.94865 11.9065 8.02515 11.8905ZM8.35913 11.8085C8.30922 11.8226 8.25909 11.8359 8.20874 11.8485C8.25912 11.8359 8.30918 11.8226 8.35913 11.8085ZM8.60718 11.7303C8.57745 11.7405 8.54822 11.752 8.51831 11.7616C8.54824 11.752 8.57743 11.7404 8.60718 11.7303ZM9.00854 11.5751C8.98905 11.5836 8.96955 11.5921 8.94995 11.6004C8.96956 11.5921 8.98904 11.5836 9.00854 11.5751ZM9.65112 11.2352C9.62982 11.2486 9.60815 11.2613 9.58667 11.2743C9.60817 11.2613 9.6298 11.2486 9.65112 11.2352ZM10.5486 10.5477L10.197 10.8407C10.1911 10.8456 10.1844 10.8495 10.1785 10.8544C10.406 10.6667 10.6162 10.4608 10.8064 10.2372L10.5486 10.5477ZM11.0154 9.9735C10.9978 9.99718 10.9797 10.0204 10.9617 10.0438C10.9797 10.0204 10.9978 9.99722 11.0154 9.9735ZM11.3962 9.37584C11.3892 9.38891 11.3819 9.40189 11.3748 9.4149C11.3819 9.40189 11.3892 9.38892 11.3962 9.37584ZM11.7058 8.67955C11.6914 8.71981 11.6763 8.75978 11.6609 8.79967C11.6763 8.75973 11.6914 8.71981 11.7058 8.67955ZM11.8308 8.27818C11.8165 8.33218 11.8011 8.38584 11.7849 8.43932C11.801 8.38576 11.8165 8.33217 11.8308 8.27818ZM11.9099 7.92955C11.8973 7.99597 11.8832 8.06201 11.8679 8.12779C11.8832 8.06191 11.8973 7.99593 11.9099 7.92955ZM11.9675 7.54283C11.961 7.60162 11.9536 7.66019 11.9451 7.71861C11.9536 7.66011 11.9611 7.60158 11.9675 7.54283ZM11.9949 7.16978C11.9918 7.25796 11.987 7.34586 11.9792 7.43346C11.9869 7.34571 11.9919 7.25785 11.9949 7.16978ZM11.9939 6.78111C11.998 6.87734 11.9993 6.97335 11.9978 7.0692C11.9991 6.9732 11.9981 6.87718 11.9939 6.78111Z"
    stroke="#434956"/>
</svg>
